<?xml version="1.0" encoding="utf-8"?>
<!-- Generator: Adobe Illustrator 18.1.1, SVG Export Plug-In . SVG Version: 6.00 Build 0)  -->
<!DOCTYPE svg PUBLIC "-//W3C//DTD SVG 1.1//EN" "http://www.w3.org/Graphics/SVG/1.1/DTD/svg11.dtd">
<svg version="1.1" id="Ebene_1" xmlns="http://www.w3.org/2000/svg" xmlns:xlink="http://www.w3.org/1999/xlink" x="0px" y="0px"
	 viewBox="0 0 32 32" enable-background="new 0 0 32 32" xml:space="preserve">
<path fill="#FFFFFF" d="M25,9.3H6.4c-0.1,0-0.3,0.1-0.3,0.2C6,9.5,6,9.7,6,9.8l0.8,8.3c0,1.2,1,2.1,2.1,2.1h12.7
	c0.5,0,0.9-0.1,1.2-0.4v0.8c0,0.7-0.5,1.2-1.2,1.2H7.7c-0.3,0-0.5,0.2-0.5,0.5s0.2,0.5,0.5,0.5h1.9c-1.1,0.3-2,1.3-2,2.5
	c0,1.4,1.1,2.6,2.6,2.6c1.4,0,2.6-1.1,2.6-2.6c0-1.2-0.8-2.2-2-2.5h9c-1.1,0.3-2,1.3-2,2.5c0,1.4,1.1,2.6,2.6,2.6
	c1.4,0,2.6-1.1,2.6-2.6c0-1.2-0.8-2.2-2-2.5h0.7c1.2,0,2.1-1,2.1-2.1V10.2H25c0.7,0,1.2,0.5,1.2,1.2c0,0.3,0.2,0.5,0.5,0.5
	s0.5-0.2,0.5-0.5C27.1,10.2,26.1,9.3,25,9.3z M11.8,25.3c0,0.9-0.7,1.6-1.6,1.6c-0.9,0-1.6-0.7-1.6-1.6c0-0.9,0.7-1.6,1.6-1.6
	C11.1,23.6,11.8,24.4,11.8,25.3z M22,25.3c0,0.9-0.7,1.6-1.6,1.6c-0.9,0-1.6-0.7-1.6-1.6c0-0.9,0.7-1.6,1.6-1.6
	C21.3,23.6,22,24.4,22,25.3z M14.7,15.2l0.1,1.5h-1.7l-0.1-1.5H14.7z M12.9,14.2l-0.1-1.5h1.7l0.1,1.5H12.9z M15.6,15.2h1.7l0.1,1.5
	h-1.7L15.6,15.2z M15.5,14.2l-0.1-1.5h1.7l0.1,1.5H15.5z M15.3,11.8l-0.1-1.6h1.7l0.1,1.6H15.3z M14.4,11.8h-1.7l-0.1-1.6h1.7
	L14.4,11.8z M11.7,11.8H10l-0.1-1.6h1.7L11.7,11.8z M11.8,12.7l0.1,1.5h-1.7l-0.1-1.5H11.8z M9.3,14.2H7.5c0,0-0.1,0-0.1,0l-0.2-1.5
	h2L9.3,14.2z M7.4,15.2C7.4,15.2,7.4,15.2,7.4,15.2l2,0l0.1,1.5H7.6L7.4,15.2z M10.3,15.2H12l0.1,1.5h-1.7L10.3,15.2z M12.2,17.6
	l0.2,1.8h-1.7l-0.2-1.8H12.2z M13.2,17.6h1.7l0.2,1.8h-1.7L13.2,17.6z M15.8,17.6h1.7l0.2,1.8h-1.7L15.8,17.6z M18.4,17.6h1.7
	l0.2,1.8h-1.7L18.4,17.6z M18.3,16.7l-0.1-1.5h1.7l0.1,1.5H18.3z M20.8,15.2h2v1.5H21L20.8,15.2z M22.8,14.2h-2.1l-0.1-1.5h2.2V14.2
	z M19.8,14.2h-1.7L18,12.7h1.7L19.8,14.2z M17.9,11.8l-0.1-1.6h1.7l0.1,1.6H17.9z M9,10.2l0.1,1.6h-2l-0.2-1.6H9z M7.7,18.1
	l-0.1-0.5h1.9l0.2,1.8H8.9C8.3,19.4,7.7,18.8,7.7,18.1z M21.6,19.4h-0.4l-0.2-1.8h1.8v0.6C22.8,18.8,22.3,19.4,21.6,19.4z
	 M22.8,11.8h-2.3l-0.1-1.6h2.4V11.8z"/>
<path fill="#FFFFFF" d="M15.7,8.2C15.7,8.2,15.7,8.2,15.7,8.2c0,0,0.1,0.1,0.1,0.1c0.1,0,0.1,0,0.2,0c0.1,0,0.1,0,0.2,0
	c0.1,0,0.1-0.1,0.1-0.1c0,0,0,0,0,0l2.7-2.7c0.2-0.2,0.2-0.5,0-0.6c-0.2-0.2-0.5-0.2-0.6,0l-2,2V0.8c0-0.3-0.2-0.5-0.5-0.5
	s-0.5,0.2-0.5,0.5v5.9l-2-2c-0.2-0.2-0.5-0.2-0.6,0c-0.2,0.2-0.2,0.5,0,0.6L15.7,8.2z"/>
</svg>
