<?xml version="1.0" encoding="utf-8"?>
<!-- Generator: Adobe Illustrator 18.1.1, SVG Export Plug-In . SVG Version: 6.00 Build 0)  -->
<!DOCTYPE svg PUBLIC "-//W3C//DTD SVG 1.1//EN" "http://www.w3.org/Graphics/SVG/1.1/DTD/svg11.dtd">
<svg version="1.1" id="Ebene_1" xmlns="http://www.w3.org/2000/svg" xmlns:xlink="http://www.w3.org/1999/xlink" x="0px" y="0px"
	 viewBox="0 0 32 32" enable-background="new 0 0 32 32" xml:space="preserve">
<path fill="#FFFFFF" d="M28,12.5c-0.1-1.7-0.8-3.2-2-4.4c-1.2-1.2-2.8-1.8-4.4-1.8c-2.5,0-4.2,1.9-5.2,3L16,9.6l-0.3-0.3
	c-0.9-1-2.7-3.1-5.3-3.1C8.8,6.3,7.2,6.9,6,8.1c-1.2,1.2-1.9,2.7-2,4.4c-0.1,1.7,0.3,3.1,1.4,4.7c0.9,1.4,3.4,3.7,5.2,5.2
	c2.6,2.2,4.5,3.4,5.4,3.4c0.5,0,1.8-0.4,5.4-3.4c1.8-1.5,4.3-3.8,5.2-5.2C27.3,16.1,28.1,14.6,28,12.5z M25.8,16.6
	c-0.7,1.1-2.7,3.1-5,5c-2.6,2.1-4.3,3.2-4.8,3.2c-0.6-0.1-2.3-1.1-4.8-3.2c-2.3-1.9-4.3-3.9-5-5C5.3,15.2,4.9,14,5,12.5
	c0.2-2.9,2.6-5.3,5.5-5.3c2.2,0,3.7,1.8,4.6,2.7c0.5,0.5,0.7,0.8,1,0.8c0.3,0,0.6-0.2,1.1-0.8c0.9-1,2.4-2.7,4.5-2.7
	c2.8,0,5.3,2.4,5.5,5.3C27.1,14,26.7,15.2,25.8,16.6z"/>
</svg>
