<?xml version="1.0" encoding="utf-8"?>
<!-- Generator: Adobe Illustrator 18.1.1, SVG Export Plug-In . SVG Version: 6.00 Build 0)  -->
<svg version="1.1" id="Ebene_1" xmlns="http://www.w3.org/2000/svg" xmlns:xlink="http://www.w3.org/1999/xlink" x="0px" y="0px"
	 viewBox="0 0 612 792" enable-background="new 0 0 612 792" xml:space="preserve">
<g>
	<path fill="#FFFFFF" d="M561.8,192.3h4.6c1.4,0,2.3-0.9,2.3-2.3s-0.9-2.3-2.3-2.3h-4.6c-1.4,0-2.3,0.9-2.3,2.3
		S560.4,192.3,561.8,192.3z"/>
	<path fill="#FFFFFF" d="M526.2,187.7h-4.6c-1.4,0-2.3,0.9-2.3,2.3s0.9,2.3,2.3,2.3h4.6c1.4,0,2.3-0.9,2.3-2.3
		C528,189.1,527.1,187.7,526.2,187.7z"/>
	<path fill="#FFFFFF" d="M546.1,190c0,1.4,0.9,2.3,2.3,2.3h4.6c1.4,0,2.3-0.9,2.3-2.3s-0.9-2.3-2.3-2.3h-4.6
		C547,187.7,546.1,189.1,546.1,190z"/>
	<path fill="#FFFFFF" d="M539.6,187.7H535c-1.4,0-2.3,0.9-2.3,2.3s0.9,2.3,2.3,2.3h4.6c1.4,0,2.3-0.9,2.3-2.3
		C541.5,189.1,540.5,187.7,539.6,187.7z"/>
	<path fill="#FFFFFF" d="M512.8,187.7h-4.6c-1.4,0-2.3,0.9-2.3,2.3s0.9,2.3,2.3,2.3h4.6c1.4,0,2.3-0.9,2.3-2.3
		C514.6,189.1,513.7,187.7,512.8,187.7z"/>
	<path fill="#FFFFFF" d="M499.4,187.7h-4.6c-1.4,0-2.3,0.9-2.3,2.3s0.9,2.3,2.3,2.3h4.6c1.4,0,2.3-0.9,2.3-2.3
		C501.2,189.1,500.3,187.7,499.4,187.7z"/>
	<path fill="#FFFFFF" d="M596.3,143.8h-6.4v-24.6c0-7.6-6.4-14.1-14.1-14.1h-14.1l-5.9-10c-4.1-6.4-12.3-8.8-19.3-5.3L509,105.1
		h-0.6h-35.2c-7.6,0.6-14.1,6.4-14.1,14.1v79.1c0,7.6,6.4,14.1,14.1,14.1h102c7.6,0,14.1-6.4,14.1-14.1v-24h6.4
		c1.8,0,2.9-1.2,2.9-2.9v-25.8C598.7,144.9,597.5,143.8,596.3,143.8z M565.2,122.7h-41.6l31.7-16.4L565.2,122.7z M538.9,95.1
		c4.1-2.3,9.4-1.2,11.7,2.9l2.3,3.5l-40.4,21.1H489L538.9,95.1z M584,191.8h-2.9c-1.8,0-2.9,1.2-2.9,2.9s1.2,2.9,2.9,2.9h2.9v1.2
		c0,4.7-4.1,8.8-8.8,8.8h-102c-4.7,0-8.8-4.1-8.8-8.8v-1.2h2.9c1.8,0,2.9-1.2,2.9-2.9s-1.2-2.9-2.9-2.9H465v-72.7
		c0-4.7,4.1-8.8,8.8-8.8h25.8l-20.5,11.7l-0.6,0.6h-5.3c-1.8,0-2.9,1.2-2.9,2.9s1.2,2.9,2.9,2.9h102c1.8,0,2.9-1.2,2.9-2.9
		s-1.2-2.9-2.9-2.9h-3.5l-7-11.7h10.6c4.7,0,8.8,4.1,8.8,8.8v24h-32.2c-1.8,0-2.9,1.2-2.9,2.9v25.2c0,1.8,1.2,2.9,2.9,2.9H584V191.8
		L584,191.8z M593.4,169.6h-39.3V149h39.3V169.6z"/>
	<circle fill="#FFFFFF" cx="563.2" cy="161.8" r="4.6"/>
</g>
</svg>
