<?xml version="1.0" encoding="utf-8"?>
<!-- Generator: Adobe Illustrator 18.1.1, SVG Export Plug-In . SVG Version: 6.00 Build 0)  -->
<!DOCTYPE svg PUBLIC "-//W3C//DTD SVG 1.1//EN" "http://www.w3.org/Graphics/SVG/1.1/DTD/svg11.dtd">
<svg version="1.1" id="Ebene_1" xmlns="http://www.w3.org/2000/svg" xmlns:xlink="http://www.w3.org/1999/xlink" x="0px" y="0px"
	 viewBox="0 0 32 32" enable-background="new 0 0 32 32" xml:space="preserve">
<g>
	<path fill="#FFFFFF" d="M22.3,22.4h1c0.3,0,0.5-0.2,0.5-0.5c0-0.3-0.2-0.5-0.5-0.5h-1c-0.3,0-0.5,0.2-0.5,0.5
		C21.8,22.2,22,22.4,22.3,22.4z"/>
	<path fill="#FFFFFF" d="M14.6,21.4h-1c-0.3,0-0.5,0.2-0.5,0.5c0,0.3,0.2,0.5,0.5,0.5h1c0.3,0,0.5-0.2,0.5-0.5
		C15,21.7,14.8,21.4,14.6,21.4z"/>
	<path fill="#FFFFFF" d="M18.9,21.9c0,0.3,0.2,0.5,0.5,0.5h1c0.3,0,0.5-0.2,0.5-0.5c0-0.3-0.2-0.5-0.5-0.5h-1
		C19.1,21.4,18.9,21.7,18.9,21.9z"/>
	<path fill="#FFFFFF" d="M17.5,21.4h-1c-0.3,0-0.5,0.2-0.5,0.5c0,0.3,0.2,0.5,0.5,0.5h1c0.3,0,0.5-0.2,0.5-0.5
		C17.9,21.7,17.7,21.4,17.5,21.4z"/>
	<path fill="#FFFFFF" d="M11.7,21.4h-1c-0.3,0-0.5,0.2-0.5,0.5c0,0.3,0.2,0.5,0.5,0.5h1c0.3,0,0.5-0.2,0.5-0.5
		C12.1,21.7,11.9,21.4,11.7,21.4z"/>
	<path fill="#FFFFFF" d="M8.8,21.4h-1c-0.3,0-0.5,0.2-0.5,0.5c0,0.3,0.2,0.5,0.5,0.5h1c0.3,0,0.5-0.2,0.5-0.5
		C9.2,21.7,9,21.4,8.8,21.4z"/>
	<path fill="#FFFFFF" d="M27.8,13.2h-1.1V9c0-1.3-1.1-2.4-2.4-2.4h-2.4l-1-1.7c-0.7-1.1-2.1-1.5-3.3-0.9l-4.7,2.6c0,0-0.1,0-0.1,0
		H6.8C5.5,6.7,4.4,7.7,4.4,9v13.5c0,1.3,1.1,2.4,2.4,2.4h17.4c1.3,0,2.4-1.1,2.4-2.4v-4.1h1.1c0.3,0,0.5-0.2,0.5-0.5v-4.4
		C28.2,13.4,28,13.2,27.8,13.2z M22.5,9.6h-7.1l5.4-2.8L22.5,9.6z M18,4.9c0.7-0.4,1.6-0.2,2,0.5L20.4,6l-6.9,3.6h-4L18,4.9z
		 M25.7,21.4h-0.5c-0.3,0-0.5,0.2-0.5,0.5c0,0.3,0.2,0.5,0.5,0.5h0.5v0.2c0,0.8-0.7,1.5-1.5,1.5H6.8c-0.8,0-1.5-0.7-1.5-1.5v-0.2
		h0.5c0.3,0,0.5-0.2,0.5-0.5c0-0.3-0.2-0.5-0.5-0.5H5.4V9c0-0.8,0.7-1.5,1.5-1.5h4.4L7.8,9.5c0,0-0.1,0.1-0.1,0.1H6.8
		c-0.3,0-0.5,0.2-0.5,0.5c0,0.3,0.2,0.5,0.5,0.5h17.4c0.3,0,0.5-0.2,0.5-0.5c0-0.3-0.2-0.5-0.5-0.5h-0.6l-1.2-2h1.8
		c0.8,0,1.5,0.7,1.5,1.5v4.1h-5.5c-0.3,0-0.5,0.2-0.5,0.5V18c0,0.3,0.2,0.5,0.5,0.5h5.5V21.4z M27.3,17.6h-6.7v-3.5h6.7V17.6z"/>
	<circle fill="#FFFFFF" cx="22.6" cy="15.8" r="1"/>
</g>
</svg>
