<?xml version="1.0" encoding="utf-8"?>
<!-- Generator: Adobe Illustrator 18.1.1, SVG Export Plug-In . SVG Version: 6.00 Build 0)  -->
<!DOCTYPE svg PUBLIC "-//W3C//DTD SVG 1.1//EN" "http://www.w3.org/Graphics/SVG/1.1/DTD/svg11.dtd">
<svg version="1.1" id="Ebene_1" xmlns="http://www.w3.org/2000/svg" xmlns:xlink="http://www.w3.org/1999/xlink" x="0px" y="0px"
	 viewBox="0 0 32 32" enable-background="new 0 0 32 32" xml:space="preserve">
<g>
	<path fill="#FFFFFF" d="M31.8,17c0-0.2-0.9-4.4-1.3-6c-0.4-1.6-1.7-2-2.3-2h-3.6V8.4c0-1.1-0.9-2.1-2.1-2.1H8.4
		c-1.1,0-2.1,0.9-2.1,2.1v12.5c0,1.2,0.7,2.1,1.5,2.1h0.7c0.2,1.6,1.6,2.8,3.2,2.8c1.6,0,3-1.2,3.2-2.8h7.5c0.2,1.6,1.6,2.8,3.2,2.8
		s3-1.2,3.2-2.8h2.4c0.3,0,0.5-0.2,0.5-0.5L31.8,17C31.8,17,31.8,17,31.8,17z M30.8,16.7h-4.5v-4.6h3.6
		C30.2,13.6,30.6,15.7,30.8,16.7z M7.2,20.8V8.4c0-0.6,0.5-1.2,1.2-1.2h14.2c0.6,0,1.2,0.5,1.2,1.2v11.5c-0.7,0.5-1.1,1.3-1.2,2.1
		H15c-0.2-1.6-1.6-2.8-3.2-2.8c-1.6,0-3,1.2-3.2,2.8H7.8C7.6,22,7.2,21.5,7.2,20.8z M11.8,24.8c-1.3,0-2.4-1.1-2.4-2.4
		s1.1-2.4,2.4-2.4c1.3,0,2.4,1.1,2.4,2.4S13.1,24.8,11.8,24.8z M25.7,24.8c-1.3,0-2.4-1.1-2.4-2.4s1.1-2.4,2.4-2.4
		c1.3,0,2.4,1.1,2.4,2.4S27,24.8,25.7,24.8z M29,22c-0.2-1.6-1.6-2.8-3.2-2.8c-0.4,0-0.7,0.1-1.1,0.2V9.9h3.6c0,0,1.1,0,1.5,1.3
		c0,0,0,0,0,0h-4.3v6.4h5.5v1c-0.1,0-0.1,0-0.2,0c-0.5,0-0.8,0.4-0.8,0.8c0,0.5,0.4,0.8,0.8,0.8c0.1,0,0.1,0,0.2,0V22H29z"/>
	<circle fill="#FFFFFF" cx="11.8" cy="22.5" r="0.8"/>
	<circle fill="#FFFFFF" cx="25.7" cy="22.5" r="0.8"/>
	<path fill="#FFFFFF" d="M4.7,8.5H0.6c-0.3,0-0.5,0.2-0.5,0.5c0,0.3,0.2,0.5,0.5,0.5h4.1c0.3,0,0.5-0.2,0.5-0.5
		C5.2,8.7,5,8.5,4.7,8.5z"/>
	<path fill="#FFFFFF" d="M4.7,19.8H3.4c-0.3,0-0.5,0.2-0.5,0.5c0,0.3,0.2,0.5,0.5,0.5h1.3c0.3,0,0.5-0.2,0.5-0.5
		C5.2,20,5,19.8,4.7,19.8z"/>
	<path fill="#FFFFFF" d="M4.7,17h-2c-0.3,0-0.5,0.2-0.5,0.5s0.2,0.5,0.5,0.5h2c0.3,0,0.5-0.2,0.5-0.5S5,17,4.7,17z"/>
	<path fill="#FFFFFF" d="M4.7,11.3H1.4c-0.3,0-0.5,0.2-0.5,0.5c0,0.3,0.2,0.5,0.5,0.5h3.3c0.3,0,0.5-0.2,0.5-0.5
		C5.2,11.5,5,11.3,4.7,11.3z"/>
	<path fill="#FFFFFF" d="M4.7,14.1H2.1c-0.3,0-0.5,0.2-0.5,0.5c0,0.3,0.2,0.5,0.5,0.5h2.7c0.3,0,0.5-0.2,0.5-0.5
		C5.2,14.3,5,14.1,4.7,14.1z"/>
</g>
</svg>
