<?xml version="1.0" encoding="utf-8"?>
<!-- Generator: Adobe Illustrator 18.1.1, SVG Export Plug-In . SVG Version: 6.00 Build 0)  -->
<!DOCTYPE svg PUBLIC "-//W3C//DTD SVG 1.1//EN" "http://www.w3.org/Graphics/SVG/1.1/DTD/svg11.dtd">
<svg version="1.1" id="Ebene_1" xmlns="http://www.w3.org/2000/svg" xmlns:xlink="http://www.w3.org/1999/xlink" x="0px" y="0px"
	 viewBox="0 0 32 32" enable-background="new 0 0 32 32" xml:space="preserve">
<g>
	<path fill="#FFFFFF" d="M24.4,14.4c0-1.5-1.2-2.8-2.7-2.9V6.8c0-0.3-0.2-0.5-0.5-0.5c-2.3,0-8,2.6-9,4.2c0,0,0,0-0.1,0h-6
		c-1.3,0-2.4,1.1-2.4,2.4v2.9c0,1.2,0.9,2.2,2,2.4l-0.9,5.4c-0.1,0.7,0,1.4,0.4,1.8c0.3,0.4,0.8,0.6,1.3,0.7c0,0,0.1,0,0.1,0h0.1
		c0,0,0,0,0.1,0c1.4-0.1,2.3-0.8,2.7-2.3l0.9-5.5h1.8c0,0,0,0,0.1,0c1,1.6,6.7,4.2,9,4.2c0.3,0,0.5-0.2,0.5-0.5v-4.7
		C23.2,17.2,24.4,16,24.4,14.4z M23.5,14.4c0,1-0.8,1.9-1.8,2v-3.9C22.7,12.5,23.5,13.4,23.5,14.4z M4.6,15.9V13
		c0-0.8,0.7-1.5,1.5-1.5h6v5.9h-6C5.2,17.4,4.6,16.7,4.6,15.9z M8.5,23.6c-0.3,1.1-0.8,1.6-1.9,1.6c-0.3,0-0.6-0.1-0.8-0.3
		c-0.2-0.2-0.3-0.6-0.2-1.1l0.9-5.5h2.8L8.5,23.6z M20.7,21.5c-2.7-0.3-7.5-3-7.8-3.7l0-6.8c0.3-0.8,5.1-3.5,7.8-3.8V21.5z"/>
	<path fill="#FFFFFF" d="M24.2,9.8c-0.2-0.2-0.5-0.1-0.6,0.1c-0.2,0.2-0.1,0.5,0.1,0.6c1.2,0.9,2,2.4,2,3.9c0,1.5-0.7,3-2,3.9
		c-0.2,0.2-0.2,0.4-0.1,0.6c0.1,0.1,0.2,0.2,0.4,0.2c0.1,0,0.2,0,0.3-0.1c1.5-1.1,2.3-2.8,2.3-4.6C26.5,12.6,25.7,10.9,24.2,9.8z"/>
	<path fill="#FFFFFF" d="M25.5,7.5c-0.2-0.2-0.5-0.1-0.6,0.1c-0.2,0.2-0.1,0.5,0.1,0.6c2,1.5,3.1,3.8,3.1,6.2c0,2.5-1.1,4.7-3.1,6.2
		c-0.2,0.2-0.2,0.4-0.1,0.6c0.1,0.1,0.2,0.2,0.4,0.2c0.1,0,0.2,0,0.3-0.1c2.2-1.6,3.5-4.2,3.5-7C28.9,11.7,27.6,9.1,25.5,7.5z"/>
	<path fill="#FFFFFF" d="M10.7,16c0.3,0,0.5-0.2,0.5-0.5c0-0.3-0.2-0.5-0.5-0.5H6.2c-0.3,0-0.5,0.2-0.5,0.5C5.8,15.8,6,16,6.2,16
		H10.7z"/>
	<path fill="#FFFFFF" d="M6.2,13.8h4.5c0.3,0,0.5-0.2,0.5-0.5c0-0.3-0.2-0.5-0.5-0.5H6.2c-0.3,0-0.5,0.2-0.5,0.5
		C5.8,13.5,6,13.8,6.2,13.8z"/>
</g>
</svg>
