<?xml version="1.0"?>
<svg width="887" height="178.3" xmlns="http://www.w3.org/2000/svg">

 <g>
  <title>background</title>
  <rect fill="none" id="canvas_background" height="180.3" width="889" y="-1" x="-1"/>
 </g>
 <g>
  <title>Layer 1</title>
  <path id="svg_1" d="m91.699997,151.899994c-31.499996,0 -57.199997,-26.600006 -57.199997,-59.700012c0,-33.100006 25.700001,-60.099991 57.199997,-60.099991c25.5,0 45.5,15.100021 53.199997,38.199997l-20.199997,0c-6.399994,-12.399994 -18.199997,-20.200012 -33.099998,-20.200012c-21.099998,0 -38.399998,19.100037 -38.399998,42.200012c0,23.100006 17.299999,41.700012 38.399998,41.700012c15.099998,0 26.800003,-7.799988 33.099998,-20.200012l20.199997,0c-7.5,23.100006 -27.699997,38.100006 -53.199997,38.100006z"/>
  <path id="svg_2" d="m286.899994,92.5c0,32.799988 -24.800018,59.5 -57.5,59.5c-32.400009,0 -57.5,-26.600006 -57.5,-59.5c0,-33.299988 25.099991,-60.300003 57.5,-60.300003c32.700012,-0.099991 57.5,27.000015 57.5,60.300003zm-18.899994,0c0,-23.700012 -17.300003,-43 -38.600006,-43c-21.099991,0 -38.399994,19.299988 -38.399994,43c0,23.299988 17.300003,42.200012 38.399994,42.200012c21.300003,-0.100006 38.600006,-18.900024 38.600006,-42.200012z"/>
  <path id="svg_3" d="m291.200012,35l18.600006,0l0,69.399994c0,17.5 9.799988,30.399994 28,30.399994c17.299988,0 30,-12.899994 30,-30l0,-69.799988l18.899994,0l0,114.299988l-18.200012,0l0,-12.399994c-7.799988,9.5 -19.5,15.300018 -33.299988,15.300018c-28,0 -43.899994,-20 -43.899994,-48.400024l0,-68.799988l-0.100006,0z"/>
  <path id="svg_4" d="m487.299988,10.699997l0,24.400009l0,12.600006c-10.100006,-9.700012 -23.600006,-15.500015 -38.799988,-15.500015c-32.400024,0 -57.5,27.099991 -57.5,60.300003c0,32.799988 25.099976,59.5 57.5,59.5c31.699982,0 56.099976,-25.200012 57.399994,-56.700012c0,-0.899994 0.100006,-1.799988 0.100006,-2.699982l0,-81.800018l-18.700012,0l0,-0.099991zm-38.899994,124.000015c-21.100006,0 -38.399994,-18.899994 -38.399994,-42.200012c0,-23.699982 17.299988,-43 38.399994,-43c21.299988,0 38.600006,19.300018 38.600006,43c0,23.299988 -17.299988,42.200012 -38.600006,42.200012z"/>
  <path id="svg_5" d="m149.100006,149.299988l0,-138.599991l18.600006,0l0,138.599991l-18.600006,0z"/>
  <path id="svg_6" d="m564.099976,32.899994l0,17.5c-22,-2 -35.900024,8.699982 -35.900024,30.600006l0,68.299988l-18.599976,0l0,-67.899994c0.000031,-34.600006 24.600037,-52.099991 54.5,-48.5z" fill="#0069B4"/>
  <path id="svg_7" d="m663,113.899994c-8,24.399994 -27.5,38.199982 -53.900024,38.199982c-32.799988,0 -58.599976,-26.199982 -58.599976,-59.699982c0,-33.100006 25.700012,-60.099991 57.5,-60.099991c29.5,0 57.900024,24.400009 57.700012,64.999985l-96.100037,0c2.400024,23.700012 20.600037,37.700012 39.5,37.700012c16.200012,0 27.700012,-7.799988 33.900024,-21.100006l20,0zm-18.200012,-33.600006c-4.700012,-18.600006 -20.200012,-31.100006 -36.799988,-31.100006c-15.799988,0 -32.400024,11.5 -37.299988,31.100006l74.099976,0z" fill="#0069B4"/>
  <path id="svg_8" d="m752.200012,35.100006l-23.099976,0l-23,33.300018l11.5,16.699982l34.599976,-50zm-39.400024,57.100006l0,0l-11.5,-16.700012l0,0l-27.900024,-40.399994l-23.099976,0l39.400024,57.200012l-39.400024,57.199982l23.099976,0l27.900024,-40.399994l0,0l11.5,-16.899994l0,0zm-6.700012,23.899994l23,33.300018l23.099976,0l-34.5,-50l-11.599976,16.699982z" fill="#0069B4"/>
  <path id="svg_9" d="m837,35.100006l-23,0l-23,33.300018l11.5,16.699982l34.5,-50zm-39.400024,57.100006l0,0l-11.5,-16.700012l0,0l-27.900024,-40.399994l-23.099976,0l39.400024,57.200012l-39.400024,57.199982l23.099976,0l27.900024,-40.399994l0,0l11.5,-16.899994l0,0zm-6.599976,23.899994l23,33.300018l23,0l-34.5,-50l-11.5,16.699982z" fill="#0069B4"/>
  <g id="svg_10">
   <g id="svg_11">
    <path id="svg_12" d="m853.799988,29.699997c6.400024,0 11.599976,5.199997 11.599976,11.599991c0,6.400024 -5.199951,11.600006 -11.599976,11.600006c-6.400024,0 -11.599976,-5.199982 -11.599976,-11.600006c0,-6.399994 5.200012,-11.599991 11.599976,-11.599991zm0,20.599991c4.799988,0 8.599976,-4 8.599976,-9c0,-5 -3.799988,-9 -8.599976,-9c-4.799988,0 -8.599976,4 -8.599976,9c0,5.100006 3.799988,9 8.599976,9zm-4.399963,-15.199982l3.900024,0c2.799988,0 5.5,0.699997 5.5,3.600006c0,2.200012 -1.400024,3.600006 -2.700012,3.700012l3.099976,4.799988l-3.299988,0l-2.799988,-4.700012l-0.700012,0l0,4.700012l-3,0l0,-12.100006zm2.899963,5.100006l1.5,0c0.799988,0 2,0 2,-1.299988c0,-1.300018 -1.200012,-1.300018 -2,-1.300018l-1.5,0l0,2.600006z" fill="#0069B4"/>
   </g>
  </g>
 </g>
</svg>